<?xml version="1.0" encoding="utf-8"?>
<!-- Generator: Adobe Illustrator 15.0.0, SVG Export Plug-In . SVG Version: 6.00 Build 0)  -->
<!DOCTYPE svg PUBLIC "-//W3C//DTD SVG 1.1//EN" "http://www.w3.org/Graphics/SVG/1.1/DTD/svg11.dtd">
<svg version="1.1" id="Layer_1" xmlns="http://www.w3.org/2000/svg" xmlns:xlink="http://www.w3.org/1999/xlink" x="0px" y="0px"
	 width="640px" height="960px" viewBox="0 0 640 960" enable-background="new 0 0 640 960" xml:space="preserve">
<g>
	<path fill="#FFFFFF" d="M404.573,221.812c0-16.42-13.358-29.78-29.781-29.78c-16.419,0-29.778,13.36-29.778,29.78
		c0,14.565,10.511,26.713,24.345,29.274l5.488,11.162l5.5-11.183C394.122,248.457,404.573,236.336,404.573,221.812z
		 M374.792,236.008c-7.824,0-14.193-6.369-14.193-14.195c0-7.826,6.369-14.194,14.193-14.194c7.827,0,14.198,6.368,14.198,14.194
		C388.99,229.639,382.619,236.008,374.792,236.008z"/>
</g>
<g>
	<path fill="#FFFFFF" d="M98.785,193.745c4.083-0.816,12.25-1.531,20.112-1.531c9.495,0,15.314,0.919,20.316,3.88
		c4.798,2.552,8.167,7.249,8.167,13.578c0,6.023-3.573,11.638-11.23,14.599v0.204c7.861,2.042,13.681,8.065,13.681,16.947
		c0,6.33-2.859,11.23-7.146,14.599c-5.002,3.982-13.374,6.228-27.054,6.228c-7.657,0-13.374-0.51-16.845-1.021V193.745z
		 M114.201,219.983h5.104c8.269,0,12.558-3.37,12.558-8.474c0-5.207-3.982-7.964-11.027-7.964c-3.471,0-5.411,0.205-6.635,0.511
		V219.983z M114.201,250.508c1.532,0.306,3.369,0.306,6.023,0.306c7.044,0,13.272-2.757,13.272-10.005
		c0-6.942-6.228-9.698-13.987-9.698h-5.309V250.508z"/>
	<path fill="#FFFFFF" d="M201.377,232.438H176.06v16.335h28.278v12.762h-43.797v-68.81h42.368v12.762h-26.85v14.292h25.317V232.438z
		"/>
	<path fill="#FFFFFF" d="M230.876,243.872l-4.798,17.662h-16.132l21.031-68.81h20.315l21.439,68.81h-16.743l-5.308-17.662H230.876z
		 M248.332,232.233l-4.287-14.599c-1.123-4.084-2.348-9.291-3.368-13.272h-0.308c-0.918,4.084-2.041,9.291-3.062,13.272
		l-4.187,14.599H248.332z"/>
	<path fill="#FFFFFF" d="M281.911,192.724h15.417v30.423h0.203c1.531-2.654,3.166-5.104,4.799-7.554l15.518-22.869h19.194
		l-22.768,29.301l23.889,39.509h-18.069l-16.946-29.708l-5.819,7.249v22.46h-15.417V192.724z"/>
</g>
<g>
	<path fill="#FFFFFF" d="M421.035,262.249v-68.81h18.172l14.292,25.217c4.084,7.249,8.065,15.824,11.229,23.583h0.204
		c-0.918-9.086-1.225-18.376-1.225-28.79v-20.01H478v68.81h-16.333l-14.702-26.544c-4.084-7.453-8.678-16.232-11.944-24.298h-0.408
		c0.509,9.189,0.714,18.887,0.714,30.117v20.725H421.035z"/>
</g>
</svg>
